<svg width="126" height="85" viewBox="0 0 126 85" fill="none" xmlns="http://www.w3.org/2000/svg">
<path d="M27.0586 28.2373C27.0586 28.4843 26.7973 28.6078 26.2749 28.6078L20.5827 28.5666C20.1977 28.5666 19.634 28.5803 18.8915 28.6078C18.149 28.6352 17.5991 28.6489 17.2416 28.6489C16.6916 28.6489 16.4166 28.5391 16.4166 28.3196C16.4166 28.1001 17.0628 27.9492 18.3553 27.8668C19.0427 27.8119 19.4415 27.7022 19.5515 27.5375C19.6615 27.3454 19.7165 26.7006 19.7165 25.6029V13.5835H7.30086V25.2324C7.30086 26.4673 7.39711 27.1945 7.5896 27.414C7.78209 27.6336 8.4283 27.7845 9.52825 27.8668C10.2432 27.9217 10.6007 28.0452 10.6007 28.2373C10.6007 28.4843 10.3257 28.6078 9.77573 28.6078H9.4045C8.74454 28.6078 8.04333 28.594 7.30086 28.5666C6.5859 28.5391 6.15968 28.5254 6.02218 28.5254C5.6372 28.5254 5.05973 28.5391 4.28977 28.5666C3.51982 28.594 2.36487 28.6078 0.824955 28.6078C0.274984 28.6078 0 28.498 0 28.2785C0 28.0589 0.274984 27.9217 0.824955 27.8668C1.18244 27.8394 1.55367 27.8119 1.93865 27.7845C2.54361 27.7296 2.92859 27.5924 3.09358 27.3729C3.17608 27.2357 3.21733 26.4673 3.21733 25.0678V3.33414C3.21733 2.09928 3.14858 1.37207 3.01109 1.15254C2.90109 0.933013 2.47487 0.809526 1.73241 0.782081C0.879952 0.727201 0.371229 0.686039 0.206238 0.658598C0.068745 0.631156 0 0.52139 0 0.3293C0 0.109766 0.178739 0 0.53622 0C0.646214 0 0.879952 0.0137214 1.23743 0.0411639C1.9249 0.0960462 3.54731 0.123487 6.10468 0.123487C7.5071 0.123487 8.4833 0.109767 9.03327 0.0823258C9.22576 0.0548847 9.47325 0.0411639 9.77573 0.0411639C10.2707 0.0411639 10.5182 0.178372 10.5182 0.452787C10.5182 0.69976 10.0645 0.823247 9.15702 0.823247C8.27706 0.823247 7.74084 0.933013 7.54835 1.15254C7.38336 1.34463 7.30086 1.98951 7.30086 3.08717V12.5545H19.7165V3.7046C19.7165 2.2502 19.6065 1.39951 19.3865 1.15254C19.1665 0.878126 18.3965 0.75464 17.0766 0.782081C16.6641 0.782081 16.4579 0.658594 16.4579 0.411621C16.4579 0.164651 16.6916 0.0411639 17.1591 0.0411639H17.3653C17.7503 0.0411639 18.424 0.0411639 19.3865 0.0411639C20.3764 0.0686051 21.1189 0.0823258 21.6139 0.0823258C23.2913 0.0823258 24.4187 0.0686051 24.9962 0.0411639C25.6011 0.0137214 25.9861 0 26.1511 0C26.7286 0 27.0173 0.123487 27.0173 0.370459C27.0173 0.617432 26.4124 0.75464 25.2024 0.782081C24.8449 0.782081 24.5837 0.809522 24.4187 0.864409C24.1437 0.946733 23.965 1.09766 23.8825 1.31719C23.8275 1.53673 23.8 2.1816 23.8 3.25182V25.1501C23.8 26.4673 23.8687 27.2357 24.0062 27.4552C24.2812 27.7571 25.0787 27.908 26.3986 27.908C26.8386 27.8531 27.0586 27.9629 27.0586 28.2373ZM35.0984 2.71671C35.0984 3.95158 34.4797 4.56901 33.2422 4.56901C32.7197 4.56901 32.2797 4.40436 31.9223 4.07506C31.5648 3.71832 31.386 3.29298 31.386 2.79903C31.386 1.50928 32.0048 0.864409 33.2422 0.864409C34.4797 0.864409 35.0984 1.48184 35.0984 2.71671ZM38.192 28.3608C38.192 28.6078 37.9583 28.7312 37.4908 28.7312C37.5183 28.7312 37.1883 28.7038 36.5008 28.6489C35.6759 28.594 34.9884 28.5666 34.4385 28.5666L30.1486 28.6489C30.0111 28.6764 29.8461 28.6901 29.6536 28.6901C29.3512 28.6901 29.1999 28.594 29.1999 28.4019C29.1999 28.1275 29.4749 27.9903 30.0249 27.9903C31.0698 27.9629 31.6335 27.8943 31.716 27.7845C31.826 27.6473 31.881 27.071 31.881 26.0557L31.8398 13.5835C31.8123 12.8975 31.771 12.4996 31.716 12.3898C31.6885 12.2526 31.5235 12.184 31.2211 12.184L30.0249 12.2252C29.9149 12.2526 29.7774 12.2663 29.6124 12.2663C29.3099 12.2663 29.1587 12.1566 29.1587 11.937C29.1587 11.745 29.3924 11.6352 29.8599 11.6077C31.7023 11.5254 33.2834 11.0864 34.6034 10.2906L35.0159 10.0436C35.2359 10.4552 35.3459 11.2098 35.3459 12.3075C35.3459 12.2526 35.3459 12.3898 35.3459 12.7191C35.3184 13.0484 35.3047 13.5835 35.3047 14.3245V25.5617C35.3047 26.6594 35.3184 27.3043 35.3459 27.4964C35.4009 27.6885 35.5521 27.8119 35.7996 27.8668C36.2121 27.9766 36.8171 28.0315 37.6145 28.0315C37.9995 28.0315 38.192 28.1412 38.192 28.3608ZM52.4215 23.3801C52.4215 24.9718 51.8302 26.3301 50.6478 27.4552C49.4929 28.5529 48.1042 29.1017 46.4818 29.1017C45.5468 29.1017 44.4056 28.7724 43.0582 28.1138C42.7007 27.9217 42.3845 27.8257 42.1095 27.8257C41.7245 27.8257 41.4358 28.0864 41.2433 28.6078C41.1333 28.937 40.9821 29.1017 40.7896 29.1017C40.5971 29.1017 40.5008 28.9919 40.5008 28.7724C40.5008 28.6352 40.5146 28.4705 40.5421 28.2785C40.6246 27.7296 40.6658 26.9201 40.6658 25.8499C40.6658 25.7676 40.6521 25.4383 40.6246 24.862C40.5971 24.2857 40.5833 23.9015 40.5833 23.7094V23.2567C40.5833 22.9548 40.6796 22.8039 40.8721 22.8039C41.0921 22.8039 41.2158 22.9548 41.2433 23.2567C41.4083 24.519 41.7658 25.5069 42.3158 26.2203C43.4157 27.6473 44.8869 28.3608 46.7293 28.3608C47.7192 28.3608 48.5167 28.0726 49.1216 27.4964C49.7266 26.9201 50.0291 26.1517 50.0291 25.1913C50.0291 24.1211 49.6854 23.2704 48.9979 22.6392C48.6129 22.2825 48.2554 22.0355 47.9255 21.8983C47.623 21.7337 46.7018 21.3632 45.1619 20.7869C42.1095 19.6344 40.5833 17.9056 40.5833 15.6005C40.5833 14.0638 41.1058 12.774 42.1508 11.7312C43.1957 10.6885 44.4881 10.1671 46.0281 10.1671C46.578 10.1671 47.403 10.3317 48.5029 10.661C48.7779 10.7433 49.0254 10.7845 49.2454 10.7845C49.8229 10.7845 50.1803 10.5101 50.3178 9.96126C50.4003 9.68685 50.5241 9.54964 50.6891 9.54964C50.8815 9.54964 50.9778 9.6594 50.9778 9.87894C50.9778 9.90638 50.964 9.9887 50.9365 10.1259L50.8953 11.8547C50.8678 12.5133 50.9365 13.5698 51.1015 15.0242V15.1065C51.1015 15.3261 50.9915 15.4358 50.7716 15.4358C50.6066 15.4358 50.4003 15.0242 50.1528 14.201C49.8504 13.2131 49.3141 12.4173 48.5442 11.8136C47.8017 11.2098 46.9355 10.908 45.9456 10.908C45.0106 10.908 44.2407 11.1961 43.6357 11.7724C43.0307 12.3487 42.7282 13.0759 42.7282 13.954C42.7282 15.3261 43.6494 16.3688 45.4918 17.0823C48.3517 18.2074 50.1666 19.1404 50.9365 19.8814C51.9265 20.8418 52.4215 22.0081 52.4215 23.3801ZM66.0047 26.1792C66.0047 26.4262 65.661 26.8652 64.9735 27.4964C63.7911 28.5666 62.3887 29.1017 60.7662 29.1017C59.2538 29.1017 58.1126 28.7175 57.3427 27.9492C56.9027 27.5101 56.6827 26.2203 56.6827 24.0799V11.8136C56.6552 11.5391 56.504 11.3882 56.229 11.3608H54.6616C54.0566 11.3608 53.7541 11.2647 53.7541 11.0726C53.7541 10.8806 53.9054 10.7708 54.2078 10.7433C56.3527 10.5513 58.0301 9.50848 59.2401 7.61501C59.4051 7.36804 59.6113 7.24455 59.8588 7.24455C60.0513 7.24455 60.1475 7.3406 60.1475 7.53269V7.69734C60.12 7.83455 60.1063 8.0678 60.1063 8.3971C60.1063 9.54964 60.1613 10.2906 60.2713 10.6199C60.5188 10.6747 60.9312 10.7022 61.5087 10.7022C63.0211 10.7022 64.0248 10.6336 64.5198 10.4964C64.6298 10.4689 64.726 10.4552 64.8085 10.4552C65.0285 10.4552 65.1385 10.5787 65.1385 10.8257C65.1385 11.2373 64.0248 11.4431 61.7974 11.4431C61.4125 11.4431 60.8487 11.4294 60.1063 11.4019V19.017C60.1063 22.8588 60.2025 25.2736 60.395 26.2615C60.5875 27.222 61.22 27.7022 62.2924 27.7022C63.1999 27.7022 64.2173 27.1945 65.3448 26.1792C65.4547 26.042 65.5785 25.9734 65.716 25.9734C65.9085 25.9734 66.0047 26.042 66.0047 26.1792ZM83.7897 19.7167C83.7897 22.3785 82.9785 24.615 81.3561 26.4262C79.7337 28.2098 77.7126 29.1017 75.2927 29.1017C72.7903 29.1017 70.7004 28.2098 69.023 26.4262C67.3456 24.615 66.5069 22.3785 66.5069 19.7167C66.5069 16.9726 67.3181 14.6949 68.9405 12.8838C70.5904 11.0726 72.6391 10.1671 75.0865 10.1671C77.5613 10.1671 79.6237 11.0864 81.2736 12.9249C82.951 14.7361 83.7897 17 83.7897 19.7167ZM80.0362 19.6755C80.0362 16.657 79.5687 14.3107 78.6338 12.6368C77.9463 11.4019 76.7914 10.7845 75.1689 10.7845C73.629 10.7845 72.4191 11.5803 71.5391 13.1719C70.6867 14.7361 70.2605 16.9177 70.2605 19.7167C70.2605 22.4883 70.7142 24.6562 71.6216 26.2203C72.5566 27.7571 73.849 28.5254 75.4989 28.5254C76.7639 28.5254 77.6988 28.0452 78.3038 27.0847C79.4587 25.2736 80.0362 22.8039 80.0362 19.6755ZM91.9348 2.71671C91.9348 3.95158 91.3161 4.56901 90.0787 4.56901C89.5562 4.56901 89.1162 4.40436 88.7587 4.07506C88.4012 3.71832 88.2225 3.29298 88.2225 2.79903C88.2225 1.50928 88.8412 0.864409 90.0787 0.864409C91.3161 0.864409 91.9348 1.48184 91.9348 2.71671ZM95.0284 28.3608C95.0284 28.6078 94.7947 28.7312 94.3272 28.7312C94.3547 28.7312 94.0247 28.7038 93.3372 28.6489C92.5123 28.594 91.8248 28.5666 91.2748 28.5666L86.9851 28.6489C86.8476 28.6764 86.6826 28.6901 86.4901 28.6901C86.1876 28.6901 86.0364 28.594 86.0364 28.4019C86.0364 28.1275 86.3114 27.9903 86.8613 27.9903C87.9063 27.9629 88.47 27.8943 88.5525 27.7845C88.6625 27.6473 88.7175 27.071 88.7175 26.0557L88.6762 13.5835C88.6487 12.8975 88.6075 12.4996 88.5525 12.3898C88.525 12.2526 88.36 12.184 88.0575 12.184L86.8613 12.2252C86.7513 12.2526 86.6138 12.2663 86.4488 12.2663C86.1464 12.2663 85.9951 12.1566 85.9951 11.937C85.9951 11.745 86.2289 11.6352 86.6963 11.6077C88.5387 11.5254 90.1199 11.0864 91.4398 10.2906L91.8523 10.0436C92.0723 10.4552 92.1823 11.2098 92.1823 12.3075C92.1823 12.2526 92.1823 12.3898 92.1823 12.7191C92.1548 13.0484 92.141 13.5835 92.141 14.3245V25.5617C92.141 26.6594 92.1548 27.3043 92.1823 27.4964C92.2373 27.6885 92.3885 27.8119 92.636 27.8668C93.0485 27.9766 93.6535 28.0315 94.4509 28.0315C94.8359 28.0315 95.0284 28.1412 95.0284 28.3608ZM109.299 12.9661C109.299 13.5973 109.107 14.1186 108.722 14.5303C108.337 14.9419 107.842 15.1477 107.237 15.1477C106.742 15.1477 106.33 15.0105 106 14.7361C105.67 14.4342 105.505 14.0638 105.505 13.6247C105.505 13.2405 105.628 12.9112 105.876 12.6368C106.123 12.3624 106.247 12.1703 106.247 12.0605C106.247 11.6489 105.945 11.4431 105.34 11.4431C104.57 11.4431 103.91 11.9233 103.36 12.8838C102.727 14.0089 102.411 16.0944 102.411 19.1404V27.2906C102.411 27.6199 102.521 27.8257 102.741 27.908C102.989 27.9903 103.703 28.0452 104.886 28.0726C105.188 28.1275 105.34 28.2373 105.34 28.4019C105.34 28.594 105.161 28.6901 104.803 28.6901C104.171 28.6901 103.58 28.6764 103.03 28.6489C102.48 28.6215 101.435 28.6078 99.895 28.6078C99.0975 28.6078 98.52 28.6215 98.1625 28.6489C97.8051 28.6764 97.3513 28.6901 96.8014 28.6901C96.3614 28.6901 96.1414 28.594 96.1414 28.4019C96.1414 28.2099 96.3201 28.1138 96.6776 28.1138H97.2551C98.19 28.1138 98.74 28.004 98.905 27.7845C98.96 27.6747 98.9875 27.1671 98.9875 26.2615V14.9419C98.9875 13.4326 98.7538 12.5682 98.2863 12.3487C97.8463 12.1017 97.1313 11.9645 96.1414 11.937C95.8114 11.937 95.6464 11.841 95.6464 11.6489C95.6464 11.4568 95.7839 11.3608 96.0589 11.3608H96.3476C96.7601 11.3608 97.1726 11.3882 97.5851 11.4431C97.9976 11.4705 98.1763 11.4843 98.1213 11.4843C99.1387 11.4843 100.266 11.1961 101.504 10.6199L102.04 10.3729L102.37 10.2494C102.48 10.908 102.535 11.5666 102.535 12.2252V13.0484C103.415 11.1275 104.652 10.1671 106.247 10.1671C107.127 10.1671 107.856 10.4415 108.433 10.9903C109.011 11.5117 109.299 12.1703 109.299 12.9661ZM126 24.1211C126 24.3955 125.78 24.8894 125.34 25.6029C124.928 26.2889 124.501 26.8515 124.061 27.2906C122.879 28.498 121.298 29.1017 119.318 29.1017C116.843 29.1017 114.767 28.2098 113.089 26.4262C111.44 24.6425 110.615 22.4334 110.615 19.799C110.615 17.0549 111.398 14.7635 112.966 12.9249C114.561 11.0864 116.541 10.1671 118.905 10.1671C120.858 10.1671 122.494 10.7433 123.814 11.8959C125.134 13.021 125.835 14.4754 125.918 16.2591C125.038 16.3963 123.869 16.4512 122.411 16.4237L119.524 16.3826C119.332 16.3826 117.682 16.4237 114.574 16.5061C114.437 17.4116 114.368 18.276 114.368 19.0993C114.368 21.8709 114.891 24.0113 115.936 25.5206C117.008 27.0024 118.507 27.7433 120.432 27.7433C121.531 27.7433 122.411 27.4964 123.071 27.0024C123.731 26.5085 124.446 25.5617 125.216 24.1622C125.326 23.9427 125.478 23.8329 125.67 23.8329C125.89 23.8329 126 23.929 126 24.1211ZM122.411 15.724C122.301 12.431 121.119 10.7845 118.864 10.7845C116.637 10.7845 115.248 12.431 114.698 15.724H122.411ZM55.0366 48.7772C55.0366 48.8733 54.9403 48.9213 54.7478 48.9213H54.6447C54.5347 48.9213 54.4179 48.9145 54.2941 48.9007C54.1841 48.9007 54.1291 48.9007 54.1291 48.9007C53.4554 48.9007 52.8848 49.0379 52.4173 49.3124C52.2249 49.4221 52.108 49.477 52.0667 49.477C51.943 49.477 51.8811 49.3947 51.8811 49.23L51.9017 48.592C51.3105 49.1546 50.6093 49.4358 49.7981 49.4358C48.6432 49.4358 47.6876 48.9968 46.9314 48.1186C46.1889 47.2268 45.8177 46.0948 45.8177 44.7228C45.8177 43.3095 46.1889 42.1638 46.9314 41.2857C47.6876 40.4076 48.6707 39.9685 49.8806 39.9685C50.8156 39.9685 51.5168 40.3047 51.9842 40.977V37.7663C51.9842 36.7236 51.9361 36.0787 51.8399 35.8317C51.7574 35.6259 51.6336 35.5299 51.4686 35.5436C51.0699 35.5847 50.8293 35.6053 50.7468 35.6053C50.5681 35.6053 50.4787 35.5436 50.4787 35.4201C50.4787 35.2966 50.5543 35.2349 50.7056 35.2349L51.448 35.2554C51.8605 35.2692 52.493 35.0771 53.3454 34.6792C53.4004 34.6517 53.4485 34.638 53.4898 34.638C53.6273 34.638 53.696 34.8027 53.696 35.132C53.696 35.2143 53.696 35.3584 53.696 35.5642C53.6823 35.7837 53.6754 35.9758 53.6754 36.1404V43.2409C53.6754 46.4927 53.7098 48.2353 53.7785 48.4685C53.806 48.5646 54.1291 48.6126 54.7478 48.6126C54.9403 48.6126 55.0366 48.6675 55.0366 48.7772ZM51.9842 43.6114C51.9842 42.2942 51.8399 41.4504 51.5511 41.0799C51.1799 40.6134 50.7056 40.3801 50.1281 40.3801C49.3856 40.3801 48.7944 40.7643 48.3544 41.5327C47.9145 42.3011 47.6945 43.3301 47.6945 44.6199C47.6945 45.8547 47.887 46.9112 48.2719 47.7893C48.4369 48.1598 48.6775 48.4685 48.9938 48.7155C49.3238 48.9488 49.6606 49.0654 50.0043 49.0654C50.4306 49.0654 50.8156 48.9419 51.1593 48.6949C51.503 48.4342 51.723 48.1255 51.8192 47.7688C51.9292 47.412 51.9842 46.0262 51.9842 43.6114ZM63.3188 46.9455C63.3188 47.0827 63.2088 47.3297 62.9888 47.6864C62.7826 48.0295 62.5695 48.3107 62.3495 48.5303C61.7583 49.134 60.9677 49.4358 59.9777 49.4358C58.7403 49.4358 57.7022 48.9899 56.8635 48.0981C56.0386 47.2062 55.6261 46.1017 55.6261 44.7845C55.6261 43.4124 56.0179 42.2668 56.8016 41.3475C57.5991 40.4282 58.589 39.9685 59.7715 39.9685C60.7477 39.9685 61.5658 40.2567 62.2257 40.8329C62.8857 41.3955 63.2363 42.1227 63.2775 43.0145C62.8376 43.0831 62.2532 43.1106 61.5245 43.0969L60.0808 43.0763C59.9846 43.0763 59.1596 43.0969 57.606 43.138C57.5372 43.5908 57.5029 44.023 57.5029 44.4346C57.5029 45.8204 57.7641 46.8906 58.2866 47.6453C58.8228 48.3862 59.5721 48.7567 60.5346 48.7567C61.0845 48.7567 61.5245 48.6332 61.8545 48.3862C62.1845 48.1392 62.542 47.6659 62.9269 46.9661C62.9819 46.8563 63.0576 46.8015 63.1538 46.8015C63.2638 46.8015 63.3188 46.8495 63.3188 46.9455ZM61.5245 42.747C61.4695 41.1005 60.8783 40.2772 59.7509 40.2772C58.6372 40.2772 57.9428 41.1005 57.6678 42.747H61.5245ZM72.3363 49.0448C72.3363 49.1683 72.2469 49.23 72.0681 49.23H71.8207C71.7932 49.23 71.4288 49.2163 70.7276 49.1889L70.0882 49.1683C69.9783 49.1683 69.4283 49.1889 68.4383 49.23C68.3558 49.2437 68.2733 49.2506 68.1909 49.2506C67.9846 49.2643 67.8815 49.2026 67.8815 49.0654C67.8815 48.9693 67.9571 48.9213 68.1084 48.9213H68.6446C69.0296 48.9213 69.222 48.839 69.222 48.6743C69.2358 48.592 69.2427 48.0569 69.2427 47.069V36.5932C69.2427 36.1404 69.2289 35.8935 69.2014 35.8523C69.1602 35.7425 69.0502 35.6877 68.8714 35.6877H68.7064L68.129 35.7082C67.9365 35.7082 67.8402 35.6465 67.8402 35.523C67.8402 35.4132 68.0121 35.3515 68.3558 35.3378C69.0158 35.2966 69.6276 35.1457 70.1914 34.885L70.6245 34.6792L70.7895 34.6174C70.8995 35.0153 70.9476 35.6191 70.9338 36.4286L70.9132 37.8898L70.9338 47.9746C70.9338 48.3862 70.9407 48.6332 70.9545 48.7155C70.9682 48.7841 71.0163 48.8321 71.0988 48.8596C71.1126 48.8733 71.3669 48.887 71.8619 48.9007C72.1781 48.9007 72.3363 48.9488 72.3363 49.0448ZM81.3767 48.2627C81.3767 48.496 81.1293 48.7429 80.6343 49.0036C80.1531 49.2506 79.6856 49.3741 79.2319 49.3741C78.2832 49.3741 77.7882 48.887 77.7469 47.9128C77.2245 48.9282 76.4133 49.4358 75.3133 49.4358C74.7221 49.4358 74.234 49.2643 73.849 48.9213C73.464 48.5646 73.2715 48.1118 73.2715 47.563C73.2715 46.4379 73.9521 45.546 75.3133 44.8874C75.7808 44.6679 76.592 44.4483 77.7469 44.2288V43.7143C77.7469 42.5069 77.6851 41.7111 77.5613 41.3269C77.3413 40.6271 76.8464 40.2772 76.0764 40.2772C75.5952 40.2772 75.1896 40.4076 74.8596 40.6683C74.5434 40.929 74.3852 41.2583 74.3852 41.6562C74.3852 41.7659 74.4677 41.8208 74.6327 41.8208C74.8115 41.8208 74.9696 41.9031 75.1071 42.0678C75.2446 42.2324 75.3133 42.4177 75.3133 42.6235C75.3133 43.2272 75.0108 43.5291 74.4059 43.5291C74.0896 43.5291 73.8284 43.4262 73.6222 43.2203C73.4159 43.0008 73.3128 42.7264 73.3128 42.3971C73.3128 41.7522 73.5672 41.1965 74.0759 40.73C74.6396 40.2224 75.4233 39.9685 76.427 39.9685C77.9394 39.9685 78.8675 40.3801 79.2112 41.2034C79.335 41.519 79.3968 42.1433 79.3968 43.0763V46.9249C79.3968 47.5561 79.4037 47.9266 79.4175 48.0363C79.4862 48.5303 79.6856 48.7772 80.0156 48.7772C80.4005 48.7772 80.7168 48.64 80.9643 48.3656C81.1018 48.2147 81.2049 48.1392 81.2736 48.1392C81.3424 48.1392 81.3767 48.1804 81.3767 48.2627ZM77.7469 46.0811V44.5787C76.7157 44.8119 75.9733 45.1207 75.5196 45.5048C75.0796 45.8753 74.8596 46.3761 74.8596 47.0073C74.8596 47.4463 74.9833 47.8099 75.2308 48.0981C75.4921 48.3725 75.8152 48.5097 76.2001 48.5097C76.7914 48.5097 77.2657 48.1804 77.6232 47.5218C77.7057 47.3709 77.7469 46.8906 77.7469 46.0811ZM23.0928 51.8644C23.0928 52.0839 22.8041 52.1937 22.2266 52.1937C21.1817 52.1937 20.5355 52.2349 20.288 52.3172C20.0405 52.3721 19.8892 52.4818 19.8343 52.6465C19.8068 52.8111 19.793 53.3462 19.793 54.2518V67.4649C19.793 67.4649 19.8068 68.7409 19.8343 71.293C19.8618 73.1864 19.8618 74.7369 19.8343 75.9443C19.7793 77.6457 19.6555 78.9217 19.463 79.7724C19.133 81.1994 18.3218 82.4205 17.0294 83.4358C15.737 84.4786 14.362 85 12.9046 85C11.8322 85 10.966 84.7119 10.306 84.1356C9.64601 83.5868 9.31603 82.8596 9.31603 81.954C9.31603 80.3898 10.086 79.6077 11.6259 79.6077C12.2584 79.6077 12.7809 79.7998 13.1934 80.184C13.6333 80.5682 13.8533 81.0621 13.8533 81.6659C13.8533 82.1872 13.6746 82.6538 13.3171 83.0654C13.0696 83.3672 12.9459 83.6005 12.9459 83.7651C12.9459 84.0121 13.1521 84.1356 13.5646 84.1356C14.4445 84.1356 15.0633 83.6005 15.4207 82.5303C15.6132 81.954 15.7094 80.2663 15.7094 77.4673V53.9637C15.7094 53.0856 15.4482 52.5367 14.9258 52.3172C14.6783 52.2349 14.0183 52.1937 12.9459 52.1937C12.4509 52.1937 12.1347 52.1663 11.9972 52.1114C11.8872 52.0565 11.8322 51.9742 11.8322 51.8644C11.8322 51.59 12.0522 51.4528 12.4921 51.4528C12.5746 51.4528 12.9459 51.4665 13.6058 51.494C14.4583 51.5214 15.1595 51.5351 15.7094 51.5351L21.7729 51.4528C22.6529 51.4528 23.0928 51.59 23.0928 51.8644ZM44.4232 78.661C44.4232 78.8531 44.1207 78.9629 43.5157 78.9903C41.3708 79.1275 39.4872 79.594 37.8648 80.3898C37.7548 80.4447 37.6585 80.4722 37.576 80.4722C37.411 80.4722 37.3286 80.3624 37.3286 80.1429L37.3698 77.8378C36.1049 79.6489 34.3312 80.5545 32.0488 80.5545C30.0139 80.5545 28.5564 79.9645 27.6765 78.7845C27.319 78.2906 27.099 77.8378 27.0165 77.4262C26.9615 77.0145 26.934 75.9032 26.934 74.092V64.6659C26.934 63.7054 26.879 63.1429 26.769 62.9782C26.659 62.8136 26.2878 62.7175 25.6553 62.6901L25.1191 62.7312C24.3767 62.7861 24.0054 62.6764 24.0054 62.4019C24.0054 62.2099 24.2392 62.1138 24.7067 62.1138C25.2016 62.1138 25.9166 62.1412 26.8515 62.1961C27.319 62.2236 27.594 62.2373 27.6765 62.2373C28.6389 62.2373 29.5326 62.1961 30.3576 62.1138V73.5981C30.3576 75.7111 30.4951 77.1106 30.7701 77.7966C31.2101 78.8668 32.1038 79.4019 33.4512 79.4019C34.9087 79.4019 35.9811 78.7982 36.6686 77.5908C37.1636 76.7127 37.411 75.3132 37.411 73.3923V67.0121C37.411 66.0791 37.3973 65.3793 37.3698 64.9128L37.2873 63.5545C37.2598 63.1429 37.1636 62.9096 36.9986 62.8547C36.8611 62.7724 36.5586 62.7312 36.0911 62.7312C34.9362 62.7587 34.3587 62.6352 34.3587 62.3608C34.3587 62.1961 34.6474 62.1138 35.2249 62.1138H35.5961C35.8161 62.1412 36.5448 62.155 37.7823 62.155C39.4322 62.155 40.4496 62.1412 40.8346 62.1138V73.5981C40.8346 75.5739 40.8759 76.8224 40.9584 77.3438C41.0409 77.8652 41.2471 78.1671 41.5771 78.2494C41.9346 78.3317 42.7183 78.3729 43.9282 78.3729C44.2582 78.3729 44.4232 78.4689 44.4232 78.661ZM57.8796 74.8329C57.8796 76.4245 57.2884 77.7829 56.1059 78.908C54.951 80.0057 53.5623 80.5545 51.9399 80.5545C51.005 80.5545 49.8638 80.2252 48.5163 79.5666C48.1588 79.3745 47.8426 79.2785 47.5676 79.2785C47.1827 79.2785 46.8939 79.5391 46.7014 80.0605C46.5914 80.3898 46.4402 80.5545 46.2477 80.5545C46.0552 80.5545 45.959 80.4447 45.959 80.2252C45.959 80.088 45.9727 79.9233 46.0002 79.7312C46.0827 79.1824 46.124 78.3729 46.124 77.3027C46.124 77.2203 46.1102 76.891 46.0827 76.3148C46.0552 75.7385 46.0415 75.3543 46.0415 75.1622V74.7094C46.0415 74.4076 46.1377 74.2567 46.3302 74.2567C46.5502 74.2567 46.6739 74.4076 46.7014 74.7094C46.8664 75.9718 47.2239 76.9596 47.7739 77.6731C48.8738 79.1001 50.345 79.8136 52.1874 79.8136C53.1773 79.8136 53.9748 79.5254 54.5798 78.9492C55.1847 78.3729 55.4872 77.6045 55.4872 76.6441C55.4872 75.5739 55.1435 74.7232 54.456 74.092C54.071 73.7353 53.7136 73.4883 53.3836 73.3511C53.0811 73.1864 52.1599 72.816 50.62 72.2397C47.5676 71.0872 46.0415 69.3584 46.0415 67.0533C46.0415 65.5165 46.5639 64.2268 47.6089 63.184C48.6538 62.1412 49.9463 61.6199 51.4862 61.6199C52.0361 61.6199 52.8611 61.7845 53.961 62.1138C54.236 62.1961 54.4835 62.2373 54.7035 62.2373C55.281 62.2373 55.6385 61.9629 55.7759 61.414C55.8584 61.1396 55.9822 61.0024 56.1472 61.0024C56.3397 61.0024 56.4359 61.1122 56.4359 61.3317C56.4359 61.3592 56.4222 61.4415 56.3947 61.5787L56.3534 63.3075C56.3259 63.9661 56.3947 65.0226 56.5597 66.477V66.5593C56.5597 66.7789 56.4497 66.8886 56.2297 66.8886C56.0647 66.8886 55.8584 66.477 55.611 65.6538C55.3085 64.6659 54.7723 63.8701 54.0023 63.2663C53.2598 62.6626 52.3936 62.3608 51.4037 62.3608C50.4687 62.3608 49.6988 62.6489 49.0938 63.2252C48.4888 63.8015 48.1864 64.5287 48.1864 65.4068C48.1864 66.7789 49.1075 67.8216 50.95 68.5351C53.8098 69.6602 55.6247 70.5932 56.3947 71.3341C57.3846 72.2946 57.8796 73.4609 57.8796 74.8329ZM71.4625 77.632C71.4625 77.8789 71.1188 78.318 70.4313 78.9492C69.2489 80.0194 67.8464 80.5545 66.224 80.5545C64.7116 80.5545 63.5704 80.1703 62.8004 79.4019C62.3605 78.9629 62.1405 77.6731 62.1405 75.5327V63.2663C62.113 62.9919 61.9617 62.841 61.6868 62.8136H60.1193C59.5144 62.8136 59.2119 62.7175 59.2119 62.5254C59.2119 62.3333 59.3631 62.2236 59.6656 62.1961C61.8105 62.004 63.4879 60.9613 64.6978 59.0678C64.8628 58.8208 65.0691 58.6973 65.3166 58.6973C65.5091 58.6973 65.6053 58.7934 65.6053 58.9855V59.1501C65.5778 59.2873 65.5641 59.5206 65.5641 59.8499C65.5641 61.0024 65.619 61.7433 65.729 62.0726C65.9765 62.1275 66.389 62.155 66.9665 62.155C68.4789 62.155 69.4826 62.0864 69.9776 61.9492C70.0876 61.9217 70.1838 61.908 70.2663 61.908C70.4863 61.908 70.5963 62.0315 70.5963 62.2785C70.5963 62.6901 69.4826 62.8959 67.2552 62.8959C66.8702 62.8959 66.3065 62.8822 65.5641 62.8547V70.4697C65.5641 74.3115 65.6603 76.7264 65.8528 77.7143C66.0453 78.6747 66.6777 79.155 67.7502 79.155C68.6576 79.155 69.6751 78.6473 70.8025 77.632C70.9125 77.4948 71.0363 77.4262 71.1738 77.4262C71.3662 77.4262 71.4625 77.4948 71.4625 77.632ZM77.5747 54.1695C77.5747 55.4044 76.956 56.0218 75.7186 56.0218C75.1961 56.0218 74.7561 55.8571 74.3986 55.5278C74.0412 55.1711 73.8624 54.7458 73.8624 54.2518C73.8624 52.9621 74.4811 52.3172 75.7186 52.3172C76.956 52.3172 77.5747 52.9346 77.5747 54.1695ZM80.6683 79.8136C80.6683 80.0605 80.4346 80.184 79.9671 80.184C79.9946 80.184 79.6646 80.1566 78.9772 80.1017C78.1522 80.0468 77.4647 80.0194 76.9148 80.0194L72.625 80.1017C72.4875 80.1291 72.3225 80.1429 72.13 80.1429C71.8275 80.1429 71.6763 80.0468 71.6763 79.8547C71.6763 79.5803 71.9513 79.4431 72.5012 79.4431C73.5462 79.4157 74.1099 79.3471 74.1924 79.2373C74.3024 79.1001 74.3574 78.5238 74.3574 77.5085L74.3161 65.0363C74.2886 64.3503 74.2474 63.9524 74.1924 63.8426C74.1649 63.7054 73.9999 63.6368 73.6974 63.6368L72.5012 63.678C72.3913 63.7054 72.2538 63.7191 72.0888 63.7191C71.7863 63.7191 71.635 63.6094 71.635 63.3898C71.635 63.1977 71.8688 63.088 72.3363 63.0605C74.1787 62.9782 75.7598 62.5391 77.0798 61.7433L77.4922 61.4964C77.7122 61.908 77.8222 62.6626 77.8222 63.7603C77.8222 63.7054 77.8222 63.8426 77.8222 64.1719C77.7947 64.5012 77.781 65.0363 77.781 65.7772V77.0145C77.781 78.1122 77.7947 78.7571 77.8222 78.9492C77.8772 79.1412 78.0285 79.2647 78.2759 79.3196C78.6884 79.4294 79.2934 79.4843 80.0908 79.4843C80.4758 79.4843 80.6683 79.594 80.6683 79.8136ZM97.3314 65.8596C97.3314 67.1219 96.7127 67.753 95.4753 67.753C94.2653 67.753 93.6603 67.1768 93.6603 66.0242C93.6603 65.7224 93.7978 65.2696 94.0728 64.6659C94.1553 64.4738 94.1966 64.2817 94.1966 64.0896C94.1966 63.5408 93.9078 63.088 93.3304 62.7312C92.7804 62.3745 92.0792 62.1961 91.2267 62.1961C89.5768 62.1961 88.2981 62.9096 87.3907 64.3366C86.4832 65.7635 86.0295 67.7667 86.0295 70.3462C86.0295 73.255 86.497 75.5052 87.4319 77.0969C88.3669 78.661 89.6868 79.4431 91.3917 79.4431C92.5467 79.4431 93.5779 79.0864 94.4853 78.3729C94.8978 78.0436 95.434 77.4124 96.094 76.4794C96.2315 76.3422 96.3552 76.2736 96.4652 76.2736C96.7402 76.2736 96.8777 76.3834 96.8777 76.6029C96.8777 76.9596 96.3965 77.632 95.434 78.6199C94.1966 79.9096 92.6154 80.5545 90.6905 80.5545C88.2706 80.5545 86.2632 79.6901 84.6683 77.9613C83.1009 76.2324 82.3172 74.0509 82.3172 71.4165C82.3172 68.59 83.1559 66.2575 84.8333 64.4189C86.5107 62.5529 88.6144 61.6199 91.1442 61.6199C92.7666 61.6199 94.1966 62.0452 95.434 62.8959C96.6989 63.7466 97.3314 64.7345 97.3314 65.8596ZM114.581 75.5739C114.581 75.8483 114.361 76.3422 113.921 77.0557C113.508 77.7417 113.082 78.3043 112.642 78.7433C111.459 79.9508 109.878 80.5545 107.898 80.5545C105.424 80.5545 103.347 79.6626 101.67 77.8789C100.02 76.0952 99.1951 73.8862 99.1951 71.2518C99.1951 68.5077 99.9788 66.2163 101.546 64.3777C103.141 62.5391 105.121 61.6199 107.486 61.6199C109.438 61.6199 111.074 62.1961 112.394 63.3487C113.714 64.4738 114.416 65.9282 114.498 67.7119C113.618 67.8491 112.449 67.904 110.992 67.8765L108.105 67.8354C107.912 67.8354 106.262 67.8765 103.155 67.9588C103.017 68.8644 102.949 69.7288 102.949 70.5521C102.949 73.3237 103.471 75.4641 104.516 76.9734C105.589 78.4552 107.087 79.1961 109.012 79.1961C110.112 79.1961 110.992 78.9492 111.652 78.4552C112.312 77.9613 113.027 77.0145 113.797 75.615C113.907 75.3955 114.058 75.2857 114.251 75.2857C114.471 75.2857 114.581 75.3818 114.581 75.5739ZM110.992 67.1768C110.882 63.8838 109.7 62.2373 107.445 62.2373C105.217 62.2373 103.829 63.8838 103.279 67.1768H110.992Z" fill="#330F0A"/>
</svg>
